<?xml version="1.0" encoding="UTF-8"?>
<svg width="210mm" height="297mm" version="1.1" viewBox="0 0 210 297" xmlns="http://www.w3.org/2000/svg" xmlns:cc="http://creativecommons.org/ns#" xmlns:dc="http://purl.org/dc/elements/1.1/" xmlns:rdf="http://www.w3.org/1999/02/22-rdf-syntax-ns#">
 <metadata>
  <rdf:RDF>
   <cc:Work rdf:about="">
    <dc:format>image/svg+xml</dc:format>
    <dc:type rdf:resource="http://purl.org/dc/dcmitype/StillImage"/>
    <dc:title/>
   </cc:Work>
  </rdf:RDF>
 </metadata>
 <path d="m-200.71-130.86h-141.36a70.682 70.682 0 0 0 0 5.2e-4 70.682 70.682 0 0 0 70.681 70.682 70.682 70.682 0 0 0 70.681-70.682 70.682 70.682 0 0 0 0-5.2e-4z" fill="none" stroke="#000" style="paint-order:stroke markers fill"/>
 <path d="m233.31 97.122c-5.4e-4 -67.549-54.76-122.31-122.31-122.31h-0.19851c-67.472 0.10959-122.11 54.837-122.11 122.31" fill="none" stroke="#000" stroke-width="1.2091" style="paint-order:stroke markers fill"/>
 <g transform="matrix(.91821 0 0 .92675 -6.0575 -34.965)" aria-label="Indulgence">
  <path d="m43.989 101.19-5.4675 10.31-2.6651-1.4134 1.8132-3.4191-20.778-11.019-1.8132 3.4191-2.6651-1.4134 5.4675-10.31 2.6651 1.4134-1.8132 3.4191 20.778 11.019 1.8132-3.4191z"/>
  <path d="m61.443 83.339-2.7637 2.5068-8.4804-9.3495q-1.0267-1.1319-2.0524-1.9969-1.039-0.87963-1.8985-1.1182-0.92754-0.28407-1.8851 0.04861-0.97094 0.31798-2.0735 1.318-1.1319 1.0267-1.8601 2.7054-0.72815 1.6787-1.0734 3.5727l11.121 12.26-2.7637 2.5068-14.894-16.42 2.7637-2.5068 1.6534 1.8229q0.32027-2.2465 1.1554-4.1026t2.2905-3.1762q2.6608-2.4134 5.5107-2.0778t5.5834 3.3492z"/>
  <path d="m84.161 72.279-3.4028 1.5307-0.95261-2.1177q-0.89615 1.9265-2.1714 3.3489-1.2753 1.4224-3.1395 2.261-3.62 1.6284-7.0096-0.19823-3.3716-1.8348-5.5943-6.776-1.1562-2.5702-1.3359-4.905-0.16166-2.3429 0.45215-4.3165 0.612-1.9292 1.9153-3.386 1.3214-1.4649 3.0771-2.2547 1.5928-0.7165 2.9783-0.92625 1.3773-0.22786 3.0524-0.13261l-3.9407-8.7604 3.4028-1.5307zm-5.6418-3.4468-5.219-11.602q-1.6524 0.0034-2.8443 0.25662-1.1918 0.25322-2.4769 0.8313-2.8598 1.2864-3.557 3.9939t0.94751 6.3637q1.6203 3.6019 3.6978 4.9306 2.0694 1.3106 4.7844 0.08934 1.448-0.65136 2.6472-1.9525 1.1911-1.3192 2.0202-2.9109z"/>
  <path d="m109.33 66.766-3.6654 0.69763-0.46014-2.4176q-1.5739 1.8148-3.1217 2.9175t-3.595 1.4923q-3.4315 0.6531-5.7392-1.0694-2.3115-1.742-3.0833-5.7974l-2.6903-14.135 3.6654-0.69763 2.3601 12.4q0.31542 1.6572 0.69775 2.8169 0.37862 1.1401 1.0451 1.882 0.68969 0.75767 1.6023 0.98804 0.91258 0.23037 2.5113-0.07391 1.4233-0.27089 2.959-1.3309 1.5552-1.0637 2.7986-2.4923l-3.0948-16.26 3.6654-0.69763z"/>
  <path d="m120.47 66.3-3.7275 0.16701-1.3823-30.851 3.7275-0.16701z"/>
  <path d="m146.04 64.992q-0.46992 5.6169-3.2413 8.0339-2.7714 2.417-8.0718 1.9736-1.7602-0.14726-3.4198-0.54502-1.6415-0.37632-3.2252-0.96689l0.31769-3.7973 0.19778 0.01655q0.87999 0.43211 2.8148 1.1118 1.9331 0.69946 3.9109 0.86493 1.8987 0.15884 3.1827-0.1918 1.284-0.35065 2.0441-1.1036 0.75675-0.71342 1.1444-1.7764 0.38767-1.063 0.50019-2.4078l0.16877-2.0173q-1.7936 1.2042-3.3926 1.7476-1.5775 0.52526-3.9508 0.3267-3.9556-0.33093-6.0511-3.3742-2.0741-3.0614-1.6389-8.2629 0.23827-2.848 1.2015-4.8387 0.98463-2.0088 2.4948-3.3961 1.403-1.2967 3.3069-1.9141 1.9055-0.63723 3.7251-0.485 1.9184 0.1605 3.1709 0.66361 1.2739 0.48498 2.6515 1.3969l0.31675-0.92948 3.4809 0.29122zm-3.4204-3.8711 1.0077-12.045q-1.4271-0.79654-2.6895-1.181-1.241-0.40256-2.5067-0.50846-3.0656-0.25647-4.9979 1.6532-1.9323 1.9096-2.2599 5.8256-0.31107 3.7182 0.83377 5.7459 1.1448 2.0276 4.1708 2.2808 1.6218 0.13568 3.2948-0.34175 1.6945-0.49555 3.1469-1.4296z"/>
  <path d="m173.71 62.996-15.83-4.0256q-0.50381 1.9812-0.28418 3.6139 0.22453 1.6135 1.0235 2.8201 0.76542 1.1776 2.0137 1.9865 1.2675 0.81381 2.9217 1.2345 2.1928 0.55762 4.6248 0.25457 2.4562-0.31739 3.614-0.92404l0.19235 0.04891-1.0027 3.9431q-2.023 0.3047-4.0592 0.33979-2.0363 0.03509-4.1329-0.49808-5.3472-1.3598-7.6141-5.0081-2.262-3.6675-0.90708-8.9955 1.3402-5.2703 4.9937-7.6383 3.6727-2.3631 8.366-1.1696 4.347 1.1055 6.048 4.2412 1.7202 3.1406 0.53158 7.8146zm-2.8156-3.6649q0.70469-2.8516-0.32247-4.7716-1.0079-1.9151-3.8931-2.6488-2.9044-0.7386-5.0709 0.53305-2.1472 1.2766-3.0237 3.7568z"/>
  <path d="m193.38 82.812-3.4079-1.5192 5.1396-11.529q0.62224-1.3958 1.0005-2.683 0.38637-1.3054 0.2584-2.1882-0.11377-0.96337-0.80413-1.7057-0.68227-0.76048-2.0418-1.3666-1.3958-0.62224-3.2256-0.61222-1.8298 0.01002-3.7023 0.45728l-6.7396 15.118-3.4079-1.5192 9.0266-20.248 3.4079 1.5192-1.002 2.2478q2.1851-0.61215 4.2204-0.59574 2.0353 0.01641 3.8299 0.81644 3.281 1.4627 4.1223 4.2062t-0.81539 6.4596z"/>
  <path d="m213.94 94.546q-2.0444-0.31374-3.7176-0.85469-1.6568-0.52977-3.2142-1.5924-1.9837-1.3535-3.248-3.0571-1.2531-1.72-1.6281-3.7058-0.39139-1.997 0.1833-4.2478 0.57469-2.2508 2.219-4.6608 3.065-4.492 7.2691-5.3716 4.2206-0.86842 8.2699 1.8945 1.5738 1.0739 2.7801 2.5456 1.2226 1.4829 2.0488 2.9836l-2.3379 3.4264-0.16394-0.11186q-0.66045-2.0604-1.766-3.6797-1.0892-1.6081-2.5155-2.5813-2.6231-1.7898-5.3558-1.0595-2.7052 0.72508-5.0319 4.1351-2.2596 3.3116-2.0034 6.1054 0.2838 2.7885 2.9725 4.623 0.93447 0.6376 2.0695 1.0517 1.1351 0.41406 2.174 0.54634 0.90707 0.11435 1.7545 0.13997 0.85866 0.0092 1.3931-0.03456l0.16394 0.11186z"/>
  <path d="m237.43 104.82-11.303-11.791q-1.4757 1.4146-2.1532 2.9163-0.66311 1.4879-0.6235 2.9346 0.0265 1.4043 0.65775 2.7511 0.645 1.3612 1.8261 2.5933 1.5657 1.6333 3.7899 2.6629 2.2522 1.0302 3.5556 1.1279l0.13734 0.14327-2.9371 2.8155q-1.8778-0.81172-3.6244-1.8593-1.7465-1.0476-3.2436-2.6092-3.8181-3.983-3.8116-8.2782 0.0209-4.3089 3.9895-8.1133 3.9257-3.7632 8.2788-3.8396 4.3668-0.06212 7.718 3.4337 3.1039 3.238 2.8883 6.7988-0.20189 3.5752-3.6834 6.9126zm-0.45023-4.5996q2.1067-2.047 2.2509-4.2197 0.15791-2.1584-1.9022-4.3074-2.0739-2.1634-4.5851-2.2305-2.4975-0.05278-4.5535 1.5882z"/>
 </g>
 <text x="-20.766348" y="132.25215" fill="#000000" font-family="sans-serif" font-size="30.153px" stroke-width=".75384" style="line-height:1.25" xml:space="preserve"><tspan x="-20.766348" y="132.25215" stroke-width=".75384">Is What We Offer</tspan></text>
</svg>
