<?xml version="1.0" encoding="UTF-8" standalone="no"?>
<svg
   xmlns:dc="http://purl.org/dc/elements/1.1/"
   xmlns:cc="http://creativecommons.org/ns#"
   xmlns:rdf="http://www.w3.org/1999/02/22-rdf-syntax-ns#"
   xmlns:svg="http://www.w3.org/2000/svg"
   xmlns="http://www.w3.org/2000/svg"
   xmlns:sodipodi="http://sodipodi.sourceforge.net/DTD/sodipodi-0.dtd"
   xmlns:inkscape="http://www.inkscape.org/namespaces/inkscape"
   sodipodi:docname="indulgence.svg"
   inkscape:version="1.0 (4035a4fb49, 2020-05-01)"
   id="svg8"
   version="1.1"
   viewBox="0 0 210 297"
   height="297mm"
   width="210mm">
  <defs
     id="defs2" />
  <sodipodi:namedview
     inkscape:window-maximized="1"
     inkscape:window-y="-9"
     inkscape:window-x="-9"
     inkscape:window-height="1003"
     inkscape:window-width="1920"
     inkscape:guide-bbox="true"
     showguides="true"
     showgrid="false"
     inkscape:document-rotation="0"
     inkscape:current-layer="layer1"
     inkscape:document-units="mm"
     inkscape:cy="270.19526"
     inkscape:cx="338.25205"
     inkscape:zoom="0.70710678"
     inkscape:pageshadow="2"
     inkscape:pageopacity="0.0"
     borderopacity="1.0"
     bordercolor="#666666"
     pagecolor="#ffffff"
     id="base">
    <sodipodi:guide
       id="guide841"
       orientation="0,-1"
       position="178.25165,164.3311" />
  </sodipodi:namedview>
  <metadata
     id="metadata5">
    <rdf:RDF>
      <cc:Work
         rdf:about="">
        <dc:format>image/svg+xml</dc:format>
        <dc:type
           rdf:resource="http://purl.org/dc/dcmitype/StillImage" />
        <dc:title></dc:title>
      </cc:Work>
    </rdf:RDF>
  </metadata>
  <g
     id="layer1"
     inkscape:groupmode="layer"
     inkscape:label="Layer 1">
    <path
       d="m -200.70574,-130.8561 h -141.3628 a 70.681547,70.681547 0 0 0 0,5.2e-4 70.681547,70.681547 0 0 0 70.68143,70.681991 70.681547,70.681547 0 0 0 70.68137,-70.681991 70.681547,70.681547 0 0 0 0,-5.2e-4 z"
       style="fill:none;stroke:#000000;stroke-width:1;stroke-miterlimit:4;stroke-dasharray:none;stroke-opacity:1;paint-order:stroke markers fill"
       id="path833" />
    <path
       sodipodi:nodetypes="cscc"
       d="M 233.31065,97.122057 C 233.31011,29.57296 178.55062,-25.186122 111.00169,-25.186194 h -0.19851 C 43.331677,-25.076607 -11.306907,29.650411 -11.307386,97.122057"
       style="display:inline;fill:none;stroke:#000000;stroke-width:1.20911;stroke-miterlimit:4;stroke-dasharray:none;stroke-opacity:1;paint-order:stroke markers fill"
       id="path846" />
    <g
       transform="matrix(0.91820995,0,0,0.92674883,-6.0575225,-34.965369)"
       style="font-style:normal;font-weight:normal;font-size:40.6464px;line-height:1.25;font-family:sans-serif;fill:#000000;fill-opacity:1;stroke:none;stroke-width:1.01526;stroke-miterlimit:4;stroke-dasharray:none;stroke-opacity:1"
       id="text905"
       aria-label="Indulgence">
      <path
         id="path911"
         style="stroke:none;stroke-width:1.01526;stroke-miterlimit:4;stroke-dasharray:none;stroke-opacity:1"
         d="m 43.989059,101.18734 -5.467531,10.30991 -2.665145,-1.41338 1.813211,-3.4191 -20.777614,-11.018748 -1.813212,3.419102 -2.665145,-1.413376 5.46753,-10.309905 2.665145,1.413376 -1.813211,3.419101 20.777615,11.01875 1.813211,-3.419104 z" />
      <path
         id="path913"
         style="stroke:none;stroke-width:1.01526;stroke-miterlimit:4;stroke-dasharray:none;stroke-opacity:1"
         d="m 61.443453,83.339379 -2.763693,2.50678 -8.480385,-9.349515 q -1.026713,-1.131938 -2.052391,-1.996865 -1.039013,-0.879629 -1.898514,-1.118233 -0.927538,-0.284072 -1.88514,0.04861 -0.970936,0.317985 -2.073473,1.31803 -1.131938,1.026713 -1.86009,2.705383 -0.728152,1.678669 -1.073388,3.572712 l 11.120505,12.260213 -2.763693,2.50678 -14.894009,-16.420453 2.763693,-2.50678 1.653408,1.822861 q 0.320266,-2.246523 1.155421,-4.102633 0.835155,-1.85611 2.290504,-3.17617 2.66079,-2.413443 5.510736,-2.077813 2.849946,0.33563 5.583404,3.349231 z" />
      <path
         id="path915"
         style="stroke:none;stroke-width:1.01526;stroke-miterlimit:4;stroke-dasharray:none;stroke-opacity:1"
         d="m 84.16129,72.279277 -3.402781,1.530695 -0.952614,-2.117689 q -0.896152,1.926495 -2.171406,3.348887 -1.275253,1.422391 -3.139543,2.261017 -3.61998,1.628399 -7.009635,-0.19823 -3.371555,-1.834771 -5.59432,-6.776044 -1.156163,-2.570186 -1.335929,-4.904954 -0.161665,-2.342911 0.452152,-4.316501 0.612002,-1.929248 1.915313,-3.386024 1.321411,-1.464917 3.077101,-2.254691 1.592791,-0.716495 2.978282,-0.926253 1.377349,-0.227857 3.05238,-0.132611 l -3.940726,-8.760351 3.402781,-1.530695 z M 78.51946,68.832499 73.300441,57.230464 q -1.65242,0.0034 -2.84426,0.256616 -1.19184,0.253221 -2.476933,0.831302 -2.859784,1.286435 -3.556956,3.99392 -0.697172,2.707485 0.947511,6.363664 1.620257,3.60188 3.697818,4.930614 2.069419,1.310634 4.784404,0.08934 1.447992,-0.65136 2.647214,-1.9525 1.19108,-1.31924 2.020221,-2.910916 z" />
      <path
         id="path917"
         style="stroke:none;stroke-width:1.01526;stroke-miterlimit:4;stroke-dasharray:none;stroke-opacity:1"
         d="m 109.33066,66.766012 -3.66541,0.697628 -0.46014,-2.417614 q -1.57389,1.814791 -3.12169,2.917505 -1.5478,1.102714 -3.594971,1.492346 -3.431452,0.653098 -5.739201,-1.069411 -2.311459,-1.742007 -3.083303,-5.797359 L 86.975626,48.453865 90.64104,47.756237 93.0011,60.156256 q 0.315416,1.657236 0.697749,2.816859 0.378623,1.140127 1.045105,1.882013 0.689691,0.757672 1.602273,0.988045 0.912581,0.230374 2.511326,-0.07391 1.423277,-0.270887 2.958997,-1.330896 1.55522,-1.06372 2.79855,-2.492346 l -3.0948,-16.260402 3.66542,-0.697627 z" />
      <path
         id="path919"
         style="stroke:none;stroke-width:1.01526;stroke-miterlimit:4;stroke-dasharray:none;stroke-opacity:1"
         d="m 120.46988,66.299874 -3.72747,0.167009 -1.38227,-30.850788 3.72747,-0.167008 z" />
      <path
         id="path921"
         style="stroke:none;stroke-width:1.01526;stroke-miterlimit:4;stroke-dasharray:none;stroke-opacity:1"
         d="m 146.0379,64.992254 q -0.46992,5.61689 -3.24132,8.033888 -2.7714,2.416997 -8.07184,1.973556 -1.76023,-0.147262 -3.41983,-0.545017 -1.64148,-0.376322 -3.2252,-0.966891 l 0.31769,-3.797334 0.19778,0.01655 q 0.87999,0.432113 2.81475,1.111799 1.9331,0.699463 3.91088,0.864926 1.89867,0.158845 3.18273,-0.191802 1.28405,-0.350648 2.04412,-1.103625 0.75675,-0.713421 1.14442,-1.776379 0.38767,-1.062959 0.50019,-2.407848 l 0.16877,-2.017334 q -1.79363,1.204246 -3.39255,1.747629 -1.57749,0.52526 -3.95083,0.326704 -3.95555,-0.330926 -6.05107,-3.374173 -2.07407,-3.06137 -1.63891,-8.262927 0.23827,-2.848001 1.20146,-4.838705 0.98463,-2.008827 2.49483,-3.396114 1.40303,-1.296671 3.3069,-1.914124 1.90551,-0.637231 3.72507,-0.485005 1.91844,0.1605 3.17091,0.663606 1.27389,0.484984 2.65149,1.396883 l 0.31675,-0.929478 3.48089,0.291216 z m -3.42039,-3.871071 1.00767,-12.044669 q -1.42708,-0.796542 -2.68947,-1.180982 -1.24096,-0.402563 -2.50674,-0.50846 -3.06555,-0.256467 -4.99786,1.65316 -1.9323,1.909627 -2.25992,5.825627 -0.31107,3.718223 0.83377,5.745874 1.14483,2.02765 4.17083,2.280809 1.62178,0.13568 3.29485,-0.341752 1.6945,-0.495554 3.14687,-1.429607 z" />
      <path
         id="path923"
         style="stroke:none;stroke-width:1.01526;stroke-miterlimit:4;stroke-dasharray:none;stroke-opacity:1"
         d="m 173.71138,62.995947 -15.83014,-4.025635 q -0.50381,1.981171 -0.28418,3.613874 0.22453,1.613469 1.02352,2.820104 0.76542,1.177618 2.01369,1.98654 1.2675,0.813814 2.92168,1.234476 2.19275,0.557621 4.62485,0.254574 2.45623,-0.31739 3.61395,-0.924037 l 0.19235,0.04891 -1.00274,3.943107 q -2.02295,0.304702 -4.05925,0.339788 -2.0363,0.03509 -4.13288,-0.498078 -5.34724,-1.359814 -7.61414,-5.008075 -2.262,-3.667496 -0.90708,-8.9955 1.34025,-5.270299 4.99373,-7.63826 3.67272,-2.363069 8.36598,-1.169564 4.34703,1.10546 6.048,4.241189 1.7202,3.140621 0.53158,7.814645 z m -2.81558,-3.664922 q 0.70469,-2.851622 -0.32247,-4.771595 -1.00793,-1.915082 -3.89313,-2.648794 -2.90443,-0.738604 -5.07089,0.533054 -2.14722,1.27655 -3.0237,3.756829 z" />
      <path
         id="path925"
         style="stroke:none;stroke-width:1.01526;stroke-miterlimit:4;stroke-dasharray:none;stroke-opacity:1"
         d="m 193.3765,82.811745 -3.40791,-1.519246 5.13958,-11.528881 q 0.62224,-1.395792 1.00053,-2.683042 0.38637,-1.305378 0.2584,-2.188157 -0.11377,-0.963368 -0.80413,-1.705723 -0.68227,-0.760482 -2.04181,-1.366565 -1.39579,-0.622244 -3.22556,-0.612224 -1.82976,0.01002 -3.70234,0.457279 l -6.73963,15.11806 -3.40791,-1.519246 9.02659,-20.24805 3.4079,1.519247 -1.00205,2.247769 q 2.18511,-0.612147 4.22039,-0.595738 2.03528,0.01641 3.82987,0.816438 3.28102,1.462678 4.12226,4.206244 0.84124,2.743566 -0.81539,6.459636 z" />
      <path
         id="path927"
         style="stroke:none;stroke-width:1.01526;stroke-miterlimit:4;stroke-dasharray:none;stroke-opacity:1"
         d="m 213.9352,94.546297 q -2.04443,-0.31374 -3.71759,-0.854692 -1.65677,-0.529766 -3.21422,-1.592435 -1.98371,-1.353504 -3.24802,-3.057088 -1.25313,-1.719979 -1.62813,-3.705757 -0.39139,-1.996965 0.1833,-4.247774 0.57469,-2.25081 2.21903,-4.660768 3.06496,-4.49203 7.26911,-5.371639 4.22055,-0.868423 8.26994,1.894516 1.57385,1.073854 2.7801,2.54561 1.22264,1.482942 2.04875,2.98364 l -2.33787,3.426403 -0.16394,-0.11186 q -0.66045,-2.060411 -1.76603,-3.679716 -1.08918,-1.608118 -2.51548,-2.581299 -2.62309,-1.789758 -5.35584,-1.059473 -2.70517,0.725077 -5.03186,4.135085 -2.25957,3.311644 -2.00336,6.105358 0.2838,2.788506 2.97246,4.623008 0.93447,0.637601 2.06952,1.05166 1.13506,0.414059 2.17405,0.546338 0.90707,0.114346 1.75454,0.139973 0.85866,0.0092 1.3931,-0.03456 l 0.16394,0.11186 z" />
      <path
         id="path929"
         style="stroke:none;stroke-width:1.01526;stroke-miterlimit:4;stroke-dasharray:none;stroke-opacity:1"
         d="M 237.4346,104.8151 226.13136,93.023765 q -1.47571,1.414623 -2.15315,2.916301 -0.66311,1.487944 -0.6235,2.934591 0.0265,1.404263 0.65775,2.751113 0.645,1.36119 1.82614,2.59333 1.5657,1.63331 3.78986,2.6629 2.25222,1.03019 3.5556,1.12792 l 0.13734,0.14327 -2.93709,2.81551 q -1.87784,-0.81172 -3.62436,-1.85929 -1.74652,-1.04758 -3.24355,-2.60925 -3.8181,-3.98298 -3.81155,-8.278157 0.0209,-4.308915 3.98953,-8.113288 3.92567,-3.76317 8.27875,-3.839615 4.36682,-0.06212 7.71796,3.433733 3.10393,3.23796 2.88831,6.798799 -0.20189,3.575168 -3.68342,6.912578 z m -0.45023,-4.59962 q 2.1067,-2.046984 2.25088,-4.219671 0.15791,-2.15836 -1.90222,-4.307448 -2.07387,-2.163416 -4.58507,-2.230525 -2.49747,-0.05278 -4.55348,1.588205 z" />
    </g>
    <text
       id="text934"
       y="132.25215"
       x="-20.766348"
       style="font-style:normal;font-weight:normal;font-size:30.1533px;line-height:1.25;font-family:sans-serif;fill:#000000;fill-opacity:1;stroke:none;stroke-width:0.753836"
       xml:space="preserve"><tspan
         style="stroke-width:0.753836"
         y="132.25215"
         x="-20.766348"
         id="tspan932"
         sodipodi:role="line">Is What We Offer</tspan></text>
  </g>
</svg>
